# xmcd CD database file
#
# Track frame offsets:
#	150
#	18333
#	36761
#	56918
#	71823
#	86188
#	102503
#	121167
#	135658
#	154583
#	170298
#	190186
#	202791
#	225201
#	242472
#	260377
#	276566
#	296782
#	312245
#	328499
#
# Disc length: 4629 seconds
#
# Revision: 0
# Processed by: cddbd v1.5.2PL0 Copyright (c) Steve Scherf et al.
# Submitted via: CDex 1.51
#
DISCID=22121314
DTITLE=The Real Book Play-Along - Volume II
DYEAR=2010
DGENRE=Jazz
TTITLE0=Sack Of Woe
TTITLE1=Saint James Infirmary
TTITLE2=St. Louis Blues
TTITLE3=St. Thomas
TTITLE4=Salt Peanuts
TTITLE5=Say It (Over And Over Again)
TTITLE6=Sentimental Journey
TTITLE7=September Song
TTITLE8=Skyliner
TTITLE9=Smoke Gets In Your Eyes
TTITLE10=Smoke Rings
TTITLE11=Softly As In A Morning Sunrise
TTITLE12=Soul Eyes
TTITLE13=Speak Low
TTITLE14=Stardust
TTITLE15=Straight Life
TTITLE16=Strode Rode
TTITLE17=Strollin'
TTITLE18=Suddenly It's Spring
TTITLE19=S'posin'
EXTD=YEAR: 2010
EXTT0=
EXTT1=
EXTT2=
EXTT3=
EXTT4=
EXTT5=
EXTT6=
EXTT7=
EXTT8=
EXTT9=
EXTT10=
EXTT11=
EXTT12=
EXTT13=
EXTT14=
EXTT15=
EXTT16=
EXTT17=
EXTT18=
EXTT19=
PLAYORDER=
